<?xml version="1.0" encoding="UTF-8"?>
<!DOCTYPE svg PUBLIC "-//W3C//DTD SVG 1.1//EN" "http://www.w3.org/Graphics/SVG/1.1/DTD/svg11.dtd">
<!-- Creator: CorelDRAW X6 -->
<svg xmlns="http://www.w3.org/2000/svg" xml:space="preserve" width="1175px" height="1181px" version="1.1" style="shape-rendering:geometricPrecision; text-rendering:geometricPrecision; image-rendering:optimizeQuality; fill-rule:evenodd; clip-rule:evenodd"
viewBox="0 0 1175 1181"
 xmlns:xlink="http://www.w3.org/1999/xlink">
 <defs>
  <style type="text/css">
   <![CDATA[
    .fil0 {fill:white}
   ]]>
  </style>
 </defs>
 <g id="Слой_x0020_1">
  <metadata id="CorelCorpID_0Corel-Layer"/>
  <path class="fil0" d="M1118 819l-142 -78c-51,-28 -115,-11 -145,39l-47 77c-5,9 -16,14 -26,12 -81,-14 -194,-74 -293,-173 -85,-85 -145,-231 -165,-285 -5,-12 1,-26 13,-32l72 -33c57,-27 80,-96 50,-151l-76 -138c-29,-53 -94,-72 -146,-45l-148 78c-30,16 -50,44 -57,76 -45,233 104,531 279,706 182,182 536,381 725,284 24,-12 48,-25 62,-47 21,-35 55,-89 85,-137 32,-53 14,-123 -41,-153z"/>
 </g>
</svg>
