<?xml version="1.0" encoding="UTF-8"?>
<!DOCTYPE svg PUBLIC "-//W3C//DTD SVG 1.1//EN" "http://www.w3.org/Graphics/SVG/1.1/DTD/svg11.dtd">
<!-- Creator: CorelDRAW X6 -->
<svg xmlns="http://www.w3.org/2000/svg" xml:space="preserve" width="1181px" height="1181px" version="1.1" style="shape-rendering:geometricPrecision; text-rendering:geometricPrecision; image-rendering:optimizeQuality; fill-rule:evenodd; clip-rule:evenodd"
viewBox="0 0 1181 1181"
 xmlns:xlink="http://www.w3.org/1999/xlink">
 <defs>
  <style type="text/css">
   <![CDATA[
    .fil0 {fill:#FEFEFE;fill-rule:nonzero}
   ]]>
  </style>
 </defs>
 <g id="Слой_x0020_1">
  <metadata id="CorelCorpID_0Corel-Layer"/>
  <path class="fil0" d="M690 83l-435 0c0,0 -1,1 -1,1 0,0 0,0 0,1l0 122c0,0 0,1 0,1l0 0c0,0 1,0 1,0l435 0c0,0 1,0 1,0l0 0c0,0 0,-1 0,-1l0 -122c0,-1 0,-1 0,-1l0 0c0,0 -1,-1 -1,-1zm147 416c95,0 180,38 242,100 61,62 99,147 99,241 0,94 -38,179 -99,241 -62,62 -147,100 -242,100 -68,0 -132,-20 -186,-55l-396 0c-23,0 -44,-10 -60,-25l0 0c-15,-16 -25,-37 -25,-60l0 -122c0,-1 0,-1 0,-2l-82 0c-24,0 -45,-9 -60,-25l0 0c-16,-15 -25,-36 -25,-60l0 -122c0,-23 9,-44 25,-60 15,-15 36,-25 60,-25l82 0c0,0 0,-1 0,-1l0 -122c0,-1 0,-1 0,-2l-82 0c-24,0 -45,-9 -60,-25l0 0c-16,-15 -25,-36 -25,-60l0 -122c0,-23 9,-44 25,-60 15,-15 36,-25 60,-25l82 0c0,0 0,-1 0,-1l0 -122c0,-24 10,-45 25,-60 15,-15 37,-25 60,-25l435 0c23,0 44,10 60,25l0 0c15,15 25,37 25,60l0 122c0,23 -10,44 -25,60l0 0 0 0c-16,15 -37,25 -60,25l-83 0c0,0 0,1 0,1l0 122c0,1 0,1 0,2l83 0c23,0 44,9 60,25l0 0c15,15 25,37 25,60l0 3 0 0c20,-4 41,-6 62,-6zm-274 543c-27,-37 -47,-79 -58,-125l-250 0c0,0 -1,0 -1,1 0,0 0,0 0,1l0 122c0,0 0,0 0,1l0 0c0,0 1,0 1,0l308 0zm-66 -208c0,-45 10,-87 26,-125 0,0 -1,0 -1,0l-434 0c-1,0 -1,0 -2,0 0,0 0,1 0,1l0 122c0,1 0,1 0,1l0 0c1,1 1,1 2,1l409 0zm76 -209c7,-9 15,-18 23,-26 28,-27 60,-50 95,-67l0 -30c0,-1 0,-1 0,-1l0 0c0,-1 -1,-1 -1,-1l-435 0c0,0 -1,0 -1,1 0,0 0,0 0,1l0 122c0,0 0,1 0,1l0 0c0,0 1,0 1,0l318 0zm447 33c-47,-47 -111,-75 -183,-75 -71,0 -135,28 -182,75 -46,47 -75,111 -75,182 0,71 29,136 75,182 47,47 111,76 182,76 72,0 136,-29 183,-76 46,-46 75,-111 75,-182 0,-71 -29,-135 -75,-182zm-498 -366l-434 0c-1,0 -1,0 -2,0 0,1 0,1 0,1l0 122c0,1 0,1 0,1l0 1c1,0 1,0 2,0l434 0c1,0 1,0 1,0l0 -1c1,0 1,0 1,-1l0 -122c0,0 0,-1 -1,-1l0 0c0,0 0,0 -1,0z"/>
 </g>
</svg>
