<?xml version="1.0" encoding="UTF-8"?>
<!DOCTYPE svg PUBLIC "-//W3C//DTD SVG 1.1//EN" "http://www.w3.org/Graphics/SVG/1.1/DTD/svg11.dtd">
<!-- Creator: CorelDRAW X6 -->
<svg xmlns="http://www.w3.org/2000/svg" xml:space="preserve" width="1045px" height="1045px" version="1.1" style="shape-rendering:geometricPrecision; text-rendering:geometricPrecision; image-rendering:optimizeQuality; fill-rule:evenodd; clip-rule:evenodd"
viewBox="0 0 1045 1045"
 xmlns:xlink="http://www.w3.org/1999/xlink">
 <defs>
  <style type="text/css">
   <![CDATA[
    .fil0 {fill:#FEFEFE}
   ]]>
  </style>
 </defs>
 <g id="Слой_x0020_1">
  <metadata id="CorelCorpID_0Corel-Layer"/>
  <path class="fil0" d="M914 610l-159 0 120 -120c50,-50 50,-133 0,-183l-135 -137c-50,-50 -133,-50 -183,0l-122 120 0 -159c0,-72 -58,-131 -130,-131l-174 0c-72,0 -131,59 -131,131l0 783c0,72 59,131 131,131l783 0c72,0 131,-59 131,-131l0 -174c0,-72 -59,-130 -131,-130zm-296 -379c18,-15 44,-15 61,0l137 137c16,17 16,43 0,61l-381 377 0 -392 183 -183zm-272 690c-2,22 -22,37 -41,37l-174 0c-24,0 -44,-20 -44,-44l0 -783c0,-24 20,-44 44,-44l174 0c24,0 43,20 43,44l0 770 -2 20zm612 -7c0,24 -20,44 -44,44l-487 0c2,-9 4,-17 6,-26l235 -235 246 0c24,0 44,19 44,43l0 174zm-697 -87c0,-24 -19,-43 -43,-43 -24,0 -44,19 -44,43 0,24 20,44 44,44 24,0 43,-20 43,-44z"/>
 </g>
</svg>
