<?xml version="1.0" encoding="UTF-8"?>
<!DOCTYPE svg PUBLIC "-//W3C//DTD SVG 1.1//EN" "http://www.w3.org/Graphics/SVG/1.1/DTD/svg11.dtd">
<!-- Creator: CorelDRAW X6 -->
<svg xmlns="http://www.w3.org/2000/svg" xml:space="preserve" width="886px" height="1181px" version="1.1" style="shape-rendering:geometricPrecision; text-rendering:geometricPrecision; image-rendering:optimizeQuality; fill-rule:evenodd; clip-rule:evenodd"
viewBox="0 0 886 1180"
 xmlns:xlink="http://www.w3.org/1999/xlink">
 <defs>
  <style type="text/css">
   <![CDATA[
    .fil0 {fill:white}
   ]]>
  </style>
 </defs>
 <g id="Слой_x0020_1">
  <metadata id="CorelCorpID_0Corel-Layer"/>
  <path class="fil0" d="M808 0l-270 0c-43,0 -79,36 -79,80l0 1011c0,43 36,80 79,80l268 0c44,0 80,-37 80,-80l0 -1011c1,-44 -35,-80 -78,-80zm-569 0l-158 0c-45,0 -81,36 -81,81l0 909c0,18 5,34 15,48l79 109c15,21 40,33 66,33 26,0 50,-12 66,-33l80 -109c10,-14 15,-30 15,-48l0 -909c-2,-45 -38,-81 -82,-81zm-158 73l158 0c3,0 7,4 7,8l0 92 -173 0 0 -92c0,-4 4,-8 8,-8zm165 173l0 645 -173 0 0 -645 173 0zm-1 748l-80 109 -5 3 -6 -3 -81 -114 0 -26 173 0 0 26c0,3 0,4 -1,5zm569 97c0,4 -3,6 -6,6l-270 0c-4,0 -6,-2 -6,-6l0 -77 98 0c20,0 37,-16 37,-37 0,-21 -16,-38 -37,-38l-98 0 0 -83 98 0c20,0 37,-16 37,-37 0,-21 -16,-37 -37,-37l-98 0 0 -84 150 0c20,0 37,-16 37,-37 0,-21 -16,-37 -37,-37l-150 0 0 -83 98 0c20,0 37,-17 37,-38 0,-20 -16,-37 -37,-37l-98 0 0 -83 98 0c20,0 37,-16 37,-38 0,-19 -16,-37 -37,-37l-98 0 0 -78 150 0c20,0 37,-16 37,-37 0,-20 -16,-38 -37,-38l-150 0 0 -75c0,-4 2,-7 6,-7l268 0c4,0 7,3 7,7l0 1011 1 0z"/>
 </g>
</svg>
