<?xml version="1.0" encoding="UTF-8"?>
<!DOCTYPE svg PUBLIC "-//W3C//DTD SVG 1.1//EN" "http://www.w3.org/Graphics/SVG/1.1/DTD/svg11.dtd">
<!-- Creator: CorelDRAW X6 -->
<svg xmlns="http://www.w3.org/2000/svg" xml:space="preserve" width="899px" height="899px" version="1.1" style="shape-rendering:geometricPrecision; text-rendering:geometricPrecision; image-rendering:optimizeQuality; fill-rule:evenodd; clip-rule:evenodd"
viewBox="0 0 899 899"
 xmlns:xlink="http://www.w3.org/1999/xlink">
 <defs>
  <style type="text/css">
   <![CDATA[
    .str0 {stroke:white;stroke-width:0.900463}
    .fil0 {fill:white}
   ]]>
  </style>
 </defs>
 <g id="Слой_x0020_1">
  <metadata id="CorelCorpID_0Corel-Layer"/>
  <path class="fil0 str0" d="M881 18c-24,-23 -63,-23 -86,0l-777 777c-23,23 -23,62 0,86 13,12 28,18 43,18 15,0 31,-6 42,-18l777 -777c24,-23 24,-62 1,-86zm-683 378c109,0 198,-89 198,-198 0,-109 -89,-198 -198,-198 -109,0 -198,89 -198,198 0,109 89,198 198,198zm0 -274c42,0 76,34 76,76 0,42 -34,76 -76,76 -42,0 -76,-34 -76,-76 0,-42 34,-76 76,-76zm503 381c-109,0 -198,89 -198,198 0,109 89,198 198,198 109,0 198,-89 198,-198 0,-109 -89,-198 -198,-198zm0 274c-42,0 -76,-34 -76,-76 0,-42 34,-76 76,-76 42,0 76,34 76,76 0,42 -34,76 -76,76z"/>
 </g>
</svg>
