<?xml version="1.0" encoding="UTF-8"?>
<!DOCTYPE svg PUBLIC "-//W3C//DTD SVG 1.1//EN" "http://www.w3.org/Graphics/SVG/1.1/DTD/svg11.dtd">
<!-- Creator: CorelDRAW X6 -->
<svg xmlns="http://www.w3.org/2000/svg" xml:space="preserve" width="866px" height="1064px" version="1.1" style="shape-rendering:geometricPrecision; text-rendering:geometricPrecision; image-rendering:optimizeQuality; fill-rule:evenodd; clip-rule:evenodd"
viewBox="0 0 866 1064"
 xmlns:xlink="http://www.w3.org/1999/xlink">
 <defs>
  <style type="text/css">
   <![CDATA[
    .str0 {stroke:white;stroke-width:0.899808}
    .fil0 {fill:white;fill-rule:nonzero}
   ]]>
  </style>
 </defs>
 <g id="Слой_x0020_1">
  <metadata id="CorelCorpID_0Corel-Layer"/>
  <path class="fil0 str0" d="M760 354l-85 86c51,133 -16,283 -150,334 -133,51 -283,-16 -334,-149 -51,-134 16,-283 150,-334 75,-29 160,-21 229,22l74 -74c32,-32 84,-32 116,0 32,32 32,83 0,115zm106 180l0 -327c-2,-10 -9,-18 -19,-21 -22,-6 -62,-17 -114,-36 -100,-37 -195,-85 -284,-145 -4,-3 -10,-4 -15,-5l-2 0c-5,1 -11,2 -15,5 -122,81 -256,142 -397,181 -12,3 -20,13 -20,25l0 306c0,114 37,224 105,314 68,90 174,188 328,232 154,-44 260,-142 328,-232 65,-86 101,-190 105,-297zm-133 -275c-20,-15 -48,-13 -65,5l-246 246 -87 -87c-17,-18 -45,-20 -65,-5 -20,17 -23,46 -6,66 1,2 2,3 3,4l123 123c18,18 46,18 64,0l282 -282c19,-19 19,-48 0,-67 -1,-1 -2,-2 -3,-3z"/>
 </g>
</svg>
