<?xml version="1.0" encoding="UTF-8"?>
<!DOCTYPE svg PUBLIC "-//W3C//DTD SVG 1.1//EN" "http://www.w3.org/Graphics/SVG/1.1/DTD/svg11.dtd">
<!-- Creator: CorelDRAW X6 -->
<svg xmlns="http://www.w3.org/2000/svg" xml:space="preserve" width="1075px" height="1075px" version="1.1" style="shape-rendering:geometricPrecision; text-rendering:geometricPrecision; image-rendering:optimizeQuality; fill-rule:evenodd; clip-rule:evenodd"
viewBox="0 0 1075 1075"
 xmlns:xlink="http://www.w3.org/1999/xlink">
 <defs>
  <style type="text/css">
   <![CDATA[
    .str0 {stroke:white;stroke-width:0.899904}
    .fil0 {fill:white;fill-rule:nonzero}
   ]]>
  </style>
 </defs>
 <g id="Слой_x0020_1">
  <metadata id="CorelCorpID_0Corel-Layer"/>
  <path class="fil0 str0" d="M538 0c148,0 282,61 379,158 97,97 158,231 158,380 0,148 -61,282 -158,379 -97,97 -231,158 -379,158 -149,0 -283,-61 -380,-158 -97,-97 -158,-231 -158,-379 0,-149 61,-283 158,-380 97,-97 231,-158 380,-158zm-47 191c0,-25 21,-46 47,-46 25,0 46,21 46,46l0 320 277 160c22,13 29,41 16,63 -12,22 -41,29 -63,17l-297 -172c-15,-7 -26,-23 -26,-41l0 -347zm361 32c-81,-80 -192,-130 -314,-130 -123,0 -234,50 -315,130 -80,81 -130,192 -130,315 0,122 50,233 130,314 81,80 192,130 315,130 122,0 233,-50 314,-130 80,-81 130,-192 130,-314 0,-123 -50,-234 -130,-315z"/>
 </g>
</svg>
