<?xml version="1.0" encoding="UTF-8"?>
<!DOCTYPE svg PUBLIC "-//W3C//DTD SVG 1.1//EN" "http://www.w3.org/Graphics/SVG/1.1/DTD/svg11.dtd">
<!-- Creator: CorelDRAW X6 -->
<svg xmlns="http://www.w3.org/2000/svg" xml:space="preserve" width="1056px" height="880px" version="1.1" style="shape-rendering:geometricPrecision; text-rendering:geometricPrecision; image-rendering:optimizeQuality; fill-rule:evenodd; clip-rule:evenodd"
viewBox="0 0 1056 880"
 xmlns:xlink="http://www.w3.org/1999/xlink">
 <defs>
  <style type="text/css">
   <![CDATA[
    .str0 {stroke:white;stroke-width:0.899829}
    .fil0 {fill:white}
   ]]>
  </style>
 </defs>
 <g id="Слой_x0020_1">
  <metadata id="CorelCorpID_0Corel-Layer"/>
  <path class="fil0 str0" d="M88 440l0 -308c0,-24 20,-44 44,-44l440 0c24,0 44,20 44,44l0 44 0 264 -528 0zm704 -132l0 176c0,24 19,44 44,44l132 0 0 132 -34 0c-22,-25 -54,-41 -89,-44 -6,0 -12,0 -19,0 -35,3 -66,19 -89,44l-33 0 0 -176 0 -264 192 0 22 44 -82 0c-25,0 -44,20 -44,44zm88 44l82 0 6 11 0 77 -88 0 0 -88zm-880 132l0 220c0,24 20,44 44,44l44 0c0,73 59,132 132,132 73,0 132,-59 132,-132l308 0 44 0c0,73 59,132 132,132 73,0 132,-59 132,-132l44 0c24,0 44,-20 44,-44l0 -220 0 -132c0,-7 -2,-13 -5,-20l-22 -43 -66 -132c-7,-15 -23,-25 -39,-25l-220 0c0,-73 -59,-132 -132,-132l-440 0c-73,0 -132,59 -132,132l0 352zm182 242c8,-13 21,-21 35,-22l0 0 1 0 1 0 0 0c1,0 1,0 1,0 1,0 1,0 1,0l1 0 0 0 1 0 0 0c15,1 28,9 35,22 1,1 1,2 2,3 3,6 4,12 4,19 0,24 -19,44 -44,44 -24,0 -44,-20 -44,-44 0,-9 2,-15 6,-22zm434 -66l-297 0c-23,-25 -54,-41 -89,-44 -7,0 -13,0 -19,0 -35,3 -67,19 -89,44l-34 0 0 -132 528 0 0 132zm180 69c1,-1 1,-2 2,-3 7,-13 20,-21 35,-22l0 0c2,0 4,0 6,0l0 0c14,1 27,9 35,22 0,1 1,2 2,3 2,6 4,12 4,19 0,24 -20,44 -44,44 -25,0 -44,-20 -44,-44 0,-7 1,-13 4,-19z"/>
 </g>
</svg>
